<svg width="24" height="24" viewBox="0 0 24 24" fill="none" xmlns="http://www.w3.org/2000/svg">
<rect x="2" y="2" width="20" height="20" rx="10" fill="white"/>
<path d="M15.1421 13.766L16.4301 15.152C15.5481 16.44 13.9941 17.168 12.2581 17.168C9.20609 17.168 7.24609 15.138 7.24609 12.1C7.24609 9.29998 9.27609 7.03198 12.3141 7.03198C14.1061 7.03198 15.5761 7.78798 16.2761 8.89398L14.8061 10.238C14.2181 9.50998 13.2661 9.13198 12.4681 9.13198C10.7181 9.13198 9.50009 10.28 9.50009 12.1C9.50009 13.864 10.7461 15.068 12.4401 15.068C13.5321 15.068 14.4701 14.606 15.1421 13.766Z" fill="#1E222D"/>
</svg>
