<svg width="24" height="24" viewBox="0 0 24 24" fill="none" xmlns="http://www.w3.org/2000/svg">
<path fill-rule="evenodd" clip-rule="evenodd" d="M13 4C13 4.55229 12.5523 5 12 5L8.8 5C7.94342 5 7.36113 5.00078 6.91104 5.03755C6.47262 5.07337 6.24842 5.1383 6.09202 5.21799C5.7157 5.40973 5.40973 5.7157 5.21799 6.09202C5.1383 6.24842 5.07337 6.47262 5.03755 6.91104C5.00078 7.36113 5 7.94342 5 8.8L5 15.2C5 16.0566 5.00078 16.6389 5.03755 17.089C5.07337 17.5274 5.1383 17.7516 5.21799 17.908C5.40974 18.2843 5.7157 18.5903 6.09202 18.782C6.24842 18.8617 6.47262 18.9266 6.91104 18.9624C7.36113 18.9992 7.94342 19 8.8 19L12 19C12.5523 19 13 19.4477 13 20C13 20.5523 12.5523 21 12 21L8.75868 21C7.95372 21 7.28937 21 6.74818 20.9558C6.18608 20.9099 5.66938 20.8113 5.18404 20.564C4.43139 20.1805 3.81947 19.5686 3.43598 18.816C3.18869 18.3306 3.09012 17.8139 3.0442 17.2518C2.99998 16.7106 2.99999 16.0463 3 15.2413L3 8.75868C2.99999 7.95372 2.99998 7.28937 3.04419 6.74818C3.09012 6.18608 3.18868 5.66937 3.43597 5.18404C3.81947 4.43139 4.43139 3.81947 5.18404 3.43597C5.66937 3.18868 6.18608 3.09012 6.74817 3.04419C7.28937 2.99998 7.95373 2.99999 8.7587 3L12 3C12.5523 3 13 3.44772 13 4Z" fill="#1B364A"/>
<path d="M16.2929 9.70711C15.9024 9.31658 15.9024 8.68342 16.2929 8.29289C16.6834 7.90237 17.3166 7.90237 17.7071 8.29289L20.7071 11.2929C21.0976 11.6834 21.0976 12.3166 20.7071 12.7071L17.7071 15.7071C17.3166 16.0976 16.6834 16.0976 16.2929 15.7071C15.9024 15.3166 15.9024 14.6834 16.2929 14.2929L17.5858 13L9 13C8.44772 13 8 12.5523 8 12C8 11.4477 8.44772 11 9 11L17.5858 11L16.2929 9.70711Z" fill="#1B364A"/>
</svg>
