<svg width="115" height="24" viewBox="0 0 115 24" fill="none" xmlns="http://www.w3.org/2000/svg">
<path d="M112.105 14.1791L105.55 7.68628L103.695 9.6032L108.271 14.1791L103.695 18.8168L105.55 20.7337L112.105 14.1791Z" fill="#5E64F2"/>
<path d="M7.91065 20.5479C6.61209 20.5479 5.49905 20.3005 4.81885 19.744C3.7058 18.9401 3.27295 17.8889 3.27295 16.2812V4.285H6.05557V7.99516H10.0749V10.7159H6.05557V15.7865C6.05557 16.7759 6.24108 17.2706 6.73577 17.5797C7.04495 17.7653 7.60147 17.8889 8.46717 17.8889C9.0237 17.8889 10.0749 17.8271 10.0749 17.8271V20.3624C10.0749 20.3624 9.08553 20.5479 7.91065 20.5479ZM83.9689 18.0126C82.7322 19.8058 80.939 20.7334 78.5274 20.7334C76.5486 20.7334 74.879 20.115 73.6423 18.8783C72.4056 17.6416 71.7872 16.0957 71.7872 14.2406C71.7872 12.3855 72.4056 10.8396 73.6423 9.6029C74.879 8.36618 76.4249 7.74782 78.3419 7.74782C80.1351 7.74782 81.6192 8.36618 82.794 9.66473C83.9689 10.9015 84.5254 12.5092 84.5254 14.3024C84.5254 14.9826 84.4018 15.4773 84.4018 15.4773H74.7554C74.9409 16.343 75.3737 16.9614 76.0539 17.4561C76.7341 17.9508 77.5998 18.1981 78.5892 18.1981C79.9496 18.1981 81.0008 17.7034 81.681 16.714L83.9689 18.0126ZM74.7554 13.0657H81.681C81.4955 12.1382 81.1245 11.458 80.5061 10.9633C79.8878 10.4686 79.1457 10.2213 78.28 10.2213C77.3525 10.2213 76.5486 10.4686 75.9302 11.0251C75.3737 11.5816 74.9409 12.2618 74.7554 13.0657ZM51.6287 18.0126C50.392 19.8058 48.5987 20.7334 46.1871 20.7334C44.2084 20.7334 42.5388 20.115 41.3021 18.8783C40.0654 17.6416 39.447 16.0957 39.447 14.2406C39.447 12.3855 40.0654 10.8396 41.3021 9.6029C42.5388 8.36618 44.0847 7.74782 46.0016 7.74782C47.7949 7.74782 49.2789 8.36618 50.4538 9.66473C51.6287 10.9015 52.1852 12.5092 52.1852 14.3024C52.1852 14.9826 52.0616 15.4773 52.0616 15.4773H42.4151C42.6006 16.343 43.0335 16.9614 43.7137 17.4561C44.3939 17.9508 45.2596 18.1981 46.249 18.1981C47.6094 18.1981 48.6606 17.7034 49.3408 16.714L51.6287 18.0126ZM42.4151 13.0657H49.3408C49.1553 12.1382 48.7842 11.458 48.1659 10.9633C47.5475 10.4686 46.8055 10.2213 45.9398 10.2213C45.0122 10.2213 44.2084 10.4686 43.59 11.0251C42.9717 11.5816 42.6006 12.2618 42.4151 13.0657ZM16.2585 5.21254C16.2585 4.285 15.5165 3.54297 14.5889 3.54297C13.6614 3.54297 12.9194 4.285 12.9194 5.21254C12.9194 6.14008 13.6614 6.88211 14.5889 6.88211C15.5165 6.88211 16.2585 6.14008 16.2585 5.21254ZM67.5824 20.4242L70.7979 8.057H67.9534L65.9747 16.7759H65.7891L63.5012 8.057H60.5949L58.2452 16.7759H58.0596L56.0809 8.057H53.2364L56.4519 20.4242H59.7292L61.9553 11.7053H62.1408L64.3669 20.4242H67.5824ZM37.3446 20.4242V12.7565C37.3446 11.2106 36.9117 9.97391 36.046 9.10821C35.1803 8.18067 34.0673 7.74782 32.645 7.74782C31.161 7.74782 29.7388 8.55169 28.9967 9.85024H28.8112C28.1929 8.55169 26.8943 7.74782 25.4102 7.74782C23.988 7.74782 22.7513 8.42801 22.0711 9.54106H21.9474V8.057H19.103V20.4242H21.9474V13.4986C21.9474 12.5092 22.1948 11.7053 22.7513 11.1488C23.246 10.6541 23.8643 10.3449 24.6064 10.3449C25.2866 10.3449 25.8431 10.5923 26.2141 11.0251C26.5851 11.458 26.7706 12.1382 26.7706 12.942V20.4242H29.6151V13.4986C29.6151 12.5092 29.8624 11.7053 30.3571 11.1488C30.79 10.6541 31.4702 10.4068 32.2122 10.4068C32.8924 10.4068 33.4489 10.6541 33.8818 11.087C34.3146 11.5198 34.5001 12.2 34.5001 13.0039V20.486H37.3446V20.4242ZM16.0112 20.4242V8.057H13.1667V20.4242H16.0112ZM98.1912 18.8165C99.3661 17.5797 99.9844 16.0338 99.9844 14.1788C99.9844 12.3855 99.3661 10.7778 98.1912 9.54106C97.0163 8.30434 95.5323 7.68598 93.9245 7.68598C92.3168 7.68598 90.7091 8.42801 89.7197 9.54106H89.5342V4.285H86.6897V20.3624H89.5342V18.8165H89.7197C90.7091 19.9913 92.3786 20.7334 93.9864 20.7334C95.6559 20.7334 97.0163 20.0532 98.1912 18.8165ZM96.0888 11.458C96.8308 12.2 97.14 13.0657 97.14 14.1788C97.14 15.2918 96.769 16.1575 96.0888 16.8995C95.3468 17.6416 94.481 17.9508 93.368 17.9508C92.2549 17.9508 91.3893 17.5797 90.6472 16.8995C89.9052 16.1575 89.596 15.2918 89.596 14.1788C89.596 13.0657 89.967 12.2 90.6472 11.458C91.3893 10.7159 92.2549 10.4068 93.368 10.4068C94.481 10.4068 95.3468 10.7778 96.0888 11.458Z" fill="white"/>
</svg>
