<svg width="202" height="20" viewBox="0 0 202 20" fill="none" xmlns="http://www.w3.org/2000/svg">
<path d="M108.832 10.6358L102.277 4.14307L100.422 6.05998L104.998 10.6358L100.422 15.2735L102.277 17.1905L108.832 10.6358Z" fill="#464CEE"/>
<path d="M4.6377 17.0049C3.33914 17.0049 2.2261 16.7576 1.5459 16.201C0.432852 15.3972 0 14.346 0 12.7382V0.742032H2.78262V4.45219H6.80196V7.17298H2.78262V12.2435C2.78262 13.2329 2.96813 13.7276 3.46282 14.0368C3.772 14.2223 4.32852 14.346 5.19422 14.346C5.75075 14.346 6.80196 14.2841 6.80196 14.2841V16.8194C6.80196 16.8194 5.81258 17.0049 4.6377 17.0049ZM80.696 14.4696C79.4593 16.2629 77.666 17.1904 75.2544 17.1904C73.2757 17.1904 71.6061 16.572 70.3694 15.3353C69.1326 14.0986 68.5143 12.5527 68.5143 10.6976C68.5143 8.84255 69.1326 7.29665 70.3694 6.05993C71.6061 4.82321 73.152 4.20485 75.0689 4.20485C76.8622 4.20485 78.3462 4.82321 79.5211 6.12176C80.696 7.35848 81.2525 8.96622 81.2525 10.7595C81.2525 11.4397 81.1288 11.9343 81.1288 11.9343H71.4824C71.6679 12.8001 72.1008 13.4184 72.781 13.9131C73.4612 14.4078 74.3269 14.6551 75.3162 14.6551C76.6766 14.6551 77.7279 14.1604 78.4081 13.1711L80.696 14.4696ZM71.4824 9.52275H78.4081C78.2225 8.5952 77.8515 7.91501 77.2332 7.42032C76.6148 6.92563 75.8728 6.67829 75.0071 6.67829C74.0795 6.67829 73.2757 6.92563 72.6573 7.48216C72.1008 8.03868 71.6679 8.71888 71.4824 9.52275ZM48.3557 14.4696C47.119 16.2629 45.3258 17.1904 42.9142 17.1904C40.9354 17.1904 39.2659 16.572 38.0291 15.3353C36.7924 14.0986 36.1741 12.5527 36.1741 10.6976C36.1741 8.84255 36.7924 7.29665 38.0291 6.05993C39.2659 4.82321 40.8118 4.20485 42.7287 4.20485C44.5219 4.20485 46.006 4.82321 47.1809 6.12176C48.3558 7.35848 48.9123 8.96622 48.9123 10.7595C48.9123 11.4397 48.7886 11.9343 48.7886 11.9343H39.1422C39.3277 12.8001 39.7606 13.4184 40.4407 13.9131C41.1209 14.4078 41.9866 14.6551 42.976 14.6551C44.3364 14.6551 45.3876 14.1604 46.0678 13.1711L48.3557 14.4696ZM39.1422 9.52275H46.0678C45.8823 8.5952 45.5113 7.91501 44.8929 7.42032C44.2746 6.92563 43.5325 6.67829 42.6668 6.67829C41.7393 6.67829 40.9354 6.92563 40.3171 7.48216C39.6987 8.03868 39.3277 8.71888 39.1422 9.52275ZM12.9856 1.66957C12.9856 0.742032 12.2435 0 11.316 0C10.3884 0 9.64642 0.742032 9.64642 1.66957C9.64642 2.59711 10.3884 3.33914 11.316 3.33914C12.2435 3.33914 12.9856 2.59711 12.9856 1.66957ZM64.3094 16.8812L67.5249 4.51403H64.6805L62.7017 13.2329H62.5162L60.2283 4.51403H57.322L54.9722 13.2329H54.7867L52.8079 4.51403H49.9635L53.179 16.8812H56.4563L58.6824 8.16235H58.8679L61.094 16.8812H64.3094ZM34.0716 9.21356C34.0716 7.66766 33.6388 6.43094 32.7731 5.56524C31.9074 4.6377 30.7943 4.20485 29.3721 4.20485C27.888 4.20485 26.4658 5.00872 25.7238 6.30727H25.5383C24.9199 5.00872 23.6214 4.20485 22.1373 4.20485C20.7151 4.20485 19.4783 4.88505 18.7981 5.99809H18.6745V4.51403H15.83V16.8812H18.6745V9.9556C18.6745 8.96622 18.9218 8.16235 19.4783 7.60583C19.973 7.11114 20.5914 6.80196 21.3334 6.80196C22.0136 6.80196 22.5701 7.04931 22.9412 7.48216C23.3122 7.91501 23.4977 8.59521 23.4977 9.39907V16.8812H26.3421V9.9556C26.3421 8.96622 26.5895 8.16235 27.0842 7.60583C27.517 7.11114 28.1972 6.8638 28.9392 6.8638C29.6194 6.8638 30.176 7.11114 30.6088 7.54399C31.0417 7.97685 31.2272 8.65704 31.2272 9.46091V16.9431H34.0716V9.21356ZM12.7382 16.8812V4.51403H9.89376V16.8812H12.7382ZM94.9183 15.2735C96.0931 14.0368 96.7115 12.4909 96.7115 10.6358C96.7115 8.84255 96.0931 7.23481 94.9183 5.99809C93.7434 4.76137 92.2593 4.14301 90.6516 4.14301C89.0438 4.14301 87.4361 4.88505 86.4467 5.99809H86.2612V0.742032H83.4168V16.8194H86.2612V15.2735H86.4467C87.4361 16.4484 89.1057 17.1904 90.7134 17.1904C92.383 17.1904 93.7434 16.5102 94.9183 15.2735ZM92.8158 7.91501C93.5579 8.65704 93.8671 9.52275 93.8671 10.6358C93.8671 11.7488 93.496 12.6145 92.8158 13.3566C92.0738 14.0986 91.2081 14.4078 90.095 14.4078C88.982 14.4078 88.1163 14.0368 87.3743 13.3566C86.6322 12.6145 86.3231 11.7488 86.3231 10.6358C86.3231 9.52275 86.6941 8.65704 87.3743 7.91501C88.1163 7.17298 88.982 6.8638 90.095 6.8638C91.2081 6.8638 92.0738 7.23481 92.8158 7.91501Z" fill="#050B26"/>
<path d="M186.999 16.5952V4.08887H189.741V7.72051H191.905C195.946 7.72051 197.197 9.76482 197.197 12.1218C197.197 14.4306 195.778 16.5952 191.713 16.5952H186.999ZM191.689 10.2699H189.741V14.0458H191.665C193.661 14.0458 194.359 13.3724 194.359 12.1458C194.359 10.9192 193.613 10.2699 191.689 10.2699ZM198.447 16.5952V4.08887H201.189V16.5952H198.447Z" fill="#464CEE"/>
<path d="M181.684 16.5952V11.5205H175.671V16.5952H172.93V4.08887H175.671V8.9952H181.684V4.08887H184.426V16.5952H181.684Z" fill="#464CEE"/>
<path d="M168.761 12.6028L170.445 14.2623C169.17 15.9699 167.415 16.8117 165.37 16.8117C161.354 16.8117 158.66 14.2623 158.66 10.318C158.66 6.66232 160.897 3.80029 165.082 3.80029C168.449 3.80029 170.95 6.06105 170.95 9.52434C170.95 9.9332 170.902 10.5345 170.806 11.28H161.522C161.739 13.2522 163.35 14.2623 165.418 14.2623C166.765 14.2623 168.016 13.6129 168.761 12.6028ZM164.961 6.27751C163.11 6.27751 161.907 7.28763 161.546 8.89902H168.112C167.896 7.16738 166.717 6.27751 164.961 6.27751Z" fill="#464CEE"/>
<path d="M143.395 16.5952C143.285 16.5952 143.195 16.5057 143.195 16.3952V4.28887C143.195 4.17841 143.285 4.08887 143.395 4.08887H145.55C145.612 4.08887 145.671 4.11763 145.709 4.16673L149.867 9.55945C149.947 9.66327 150.104 9.66327 150.184 9.55945L154.343 4.16673C154.381 4.11763 154.439 4.08887 154.501 4.08887H156.464C156.574 4.08887 156.664 4.17841 156.664 4.28887V16.3952C156.664 16.5057 156.574 16.5952 156.464 16.5952H154.122C154.011 16.5952 153.922 16.5057 153.922 16.3952V9.4142C153.922 9.2233 153.68 9.14091 153.563 9.29214L150.205 13.6524C150.126 13.7549 149.972 13.7566 149.89 13.6559L146.293 9.19564C146.174 9.0488 145.937 9.13255 145.937 9.3212V16.3952C145.937 16.5057 145.848 16.5952 145.737 16.5952H143.395Z" fill="#464CEE"/>
<path d="M127.821 10.318C127.821 6.54206 130.539 3.80029 134.507 3.80029C138.452 3.80029 141.217 6.54206 141.217 10.318C141.217 14.0699 138.452 16.8117 134.507 16.8117C130.611 16.8117 127.821 14.0699 127.821 10.318ZM130.659 10.318C130.659 12.5788 132.223 14.2623 134.507 14.2623C136.792 14.2623 138.38 12.7231 138.38 10.318C138.38 7.8889 136.672 6.34966 134.507 6.34966C132.319 6.34966 130.659 7.86485 130.659 10.318Z" fill="#464CEE"/>
<path d="M113.047 19.4572C112.936 19.4572 112.847 19.3677 112.847 19.2572V14.2458C112.847 14.1354 112.936 14.0458 113.047 14.0458H114.174C114.246 14.0458 114.312 14.0076 114.347 13.9449C115.43 11.9862 115.709 9.44517 115.709 6.25342V4.28887C115.709 4.17841 115.798 4.08887 115.909 4.08887H125.081C125.191 4.08887 125.281 4.17841 125.281 4.28887V13.8458C125.281 13.9563 125.37 14.0458 125.481 14.0458H126.837C126.947 14.0458 127.037 14.1354 127.037 14.2458V19.2572C127.037 19.3677 126.947 19.4572 126.837 19.4572H124.687C124.577 19.4572 124.487 19.3677 124.487 19.2572V16.7952C124.487 16.6847 124.398 16.5952 124.287 16.5952H115.596C115.486 16.5952 115.396 16.6847 115.396 16.7952V19.2572C115.396 19.3677 115.307 19.4572 115.196 19.4572H113.047ZM118.506 6.63823C118.396 6.63823 118.306 6.72778 118.306 6.83823V7.67241C118.306 9.86136 117.925 12.2197 117.262 13.7541C117.203 13.89 117.301 14.0458 117.449 14.0458H122.339C122.45 14.0458 122.539 13.9563 122.539 13.8458V6.83823C122.539 6.72778 122.45 6.63823 122.339 6.63823H118.506Z" fill="#464CEE"/>
</svg>
