<svg width="18" height="18" viewBox="0 0 18 18" fill="none" xmlns="http://www.w3.org/2000/svg">
<g clip-path="url(#clip0_66458_13712)">
<path d="M16.8825 10.3202C16.6044 9.93627 16.4546 9.4743 16.4546 9.00021C16.4546 8.52612 16.6044 8.06414 16.8825 7.68021L17.4525 6.89271C17.5222 6.79654 17.5681 6.68521 17.5863 6.56785C17.6046 6.4505 17.5947 6.3305 17.5575 6.21771C17.5199 6.1061 17.4571 6.0047 17.3738 5.92143C17.2905 5.83816 17.1891 5.77528 17.0775 5.73771L16.155 5.43771C15.7031 5.29193 15.3092 5.00634 15.0302 4.62215C14.7511 4.23796 14.6014 3.77504 14.6025 3.30021V2.32521C14.6024 2.20683 14.5743 2.09016 14.5205 1.98472C14.4667 1.87929 14.3886 1.7881 14.2928 1.71861C14.197 1.64911 14.0861 1.60329 13.9691 1.58488C13.8522 1.56647 13.7326 1.57601 13.62 1.61271L12.69 1.91271C12.2385 2.05881 11.7524 2.05841 11.3011 1.91159C10.8499 1.76476 10.4566 1.47901 10.1775 1.09521L9.60751 0.307706C9.53473 0.216438 9.44232 0.142741 9.33715 0.0920898C9.23198 0.0414391 9.11674 0.0151367 9.00001 0.0151367C8.88328 0.0151367 8.76804 0.0414391 8.66287 0.0920898C8.5577 0.142741 8.46529 0.216438 8.39251 0.307706L7.82251 1.09521C7.54343 1.47901 7.15015 1.76476 6.69889 1.91159C6.24763 2.05841 5.7615 2.05881 5.31001 1.91271L4.38001 1.61271C4.26746 1.57601 4.14783 1.56647 4.03089 1.58488C3.91396 1.60329 3.80304 1.64911 3.70721 1.71861C3.61138 1.7881 3.53336 1.87929 3.47953 1.98472C3.4257 2.09016 3.3976 2.20683 3.39751 2.32521V3.30021C3.39866 3.77504 3.24891 4.23796 2.96986 4.62215C2.69082 5.00634 2.29692 5.29193 1.84501 5.43771L0.922509 5.73771C0.810903 5.77528 0.7095 5.83816 0.62623 5.92143C0.542961 6.0047 0.480081 6.1061 0.442509 6.21771C0.405318 6.3305 0.395443 6.4505 0.413698 6.56785C0.431953 6.68521 0.477815 6.79654 0.547509 6.89271L1.11751 7.68021C1.39564 8.06414 1.5454 8.52612 1.5454 9.00021C1.5454 9.4743 1.39564 9.93627 1.11751 10.3202L0.547509 11.1077C0.477815 11.2039 0.431953 11.3152 0.413698 11.4326C0.395443 11.5499 0.405318 11.6699 0.442509 11.7827C0.480081 11.8943 0.542961 11.9957 0.62623 12.079C0.7095 12.1623 0.810903 12.2251 0.922509 12.2627L1.84501 12.5627C2.29692 12.7085 2.69082 12.9941 2.96986 13.3783C3.24891 13.7625 3.39866 14.2254 3.39751 14.7002V15.6752C3.3976 15.7936 3.4257 15.9103 3.47953 16.0157C3.53336 16.1211 3.61138 16.2123 3.70721 16.2818C3.80304 16.3513 3.91396 16.3971 4.03089 16.4155C4.14783 16.4339 4.26746 16.4244 4.38001 16.3877L5.30251 16.0877C5.75496 15.9391 6.24293 15.9383 6.69591 16.0852C7.14889 16.2322 7.54343 16.5193 7.82251 16.9052L8.39251 17.6927C8.46253 17.788 8.55401 17.8656 8.65955 17.919C8.76509 17.9724 8.88172 18.0003 9.00001 18.0003C9.1183 18.0003 9.23493 17.9724 9.34047 17.919C9.44601 17.8656 9.53749 17.788 9.60751 17.6927L10.1775 16.9052C10.4571 16.5199 10.8516 16.2331 11.3044 16.0862C11.7573 15.9393 12.245 15.9399 12.6975 16.0877L13.62 16.3877C13.7326 16.4244 13.8522 16.4339 13.9691 16.4155C14.0861 16.3971 14.197 16.3513 14.2928 16.2818C14.3886 16.2123 14.4667 16.1211 14.5205 16.0157C14.5743 15.9103 14.6024 15.7936 14.6025 15.6752V14.7002C14.6014 14.2254 14.7511 13.7625 15.0302 13.3783C15.3092 12.9941 15.7031 12.7085 16.155 12.5627L17.0775 12.2627C17.1891 12.2251 17.2905 12.1623 17.3738 12.079C17.4571 11.9957 17.5199 11.8943 17.5575 11.7827C17.5947 11.6699 17.6046 11.5499 17.5863 11.4326C17.5681 11.3152 17.5222 11.2039 17.4525 11.1077L16.8825 10.3202ZM12.5325 8.03046L8.78251 11.7805C8.64186 11.9211 8.45113 12 8.25226 12C8.05339 12 7.86265 11.9211 7.72201 11.7805L5.47201 9.53046C5.40038 9.46127 5.34324 9.37851 5.30393 9.28701C5.26463 9.19551 5.24394 9.09709 5.24307 8.99751C5.24221 8.89792 5.26118 8.79916 5.29889 8.70699C5.3366 8.61482 5.39229 8.53108 5.46271 8.46066C5.53313 8.39024 5.61687 8.33455 5.70904 8.29684C5.80122 8.25913 5.89998 8.24015 5.99956 8.24102C6.09914 8.24188 6.19756 8.26257 6.28906 8.30188C6.38057 8.34119 6.46332 8.39832 6.53251 8.46996L8.25001 10.1897L11.4698 6.96996C11.6112 6.83334 11.8007 6.75774 11.9973 6.75945C12.194 6.76116 12.3821 6.84004 12.5211 6.97909C12.6602 7.11815 12.7391 7.30626 12.7408 7.50291C12.7425 7.69955 12.6669 7.889 12.5303 8.03046H12.5325Z" fill="#25A668"/>
</g>
<defs>
<clipPath id="clip0_66458_13712">
<rect width="18" height="18" fill="white"/>
</clipPath>
</defs>
</svg>
